<svg width="632" height="347" viewBox="0 0 632 347" fill="none" xmlns="http://www.w3.org/2000/svg">
<g clip-path="url(#clip0_512_21314)">
<path d="M224.479 345.13H214.94C213.999 345.128 213.096 344.754 212.431 344.088C211.765 343.423 211.391 342.521 211.39 341.58V262.058C211.391 261.117 211.765 260.215 212.431 259.55C213.096 258.884 213.998 258.51 214.939 258.509H224.479C225.42 258.51 226.323 258.884 226.988 259.55C227.654 260.215 228.028 261.118 228.029 262.059V341.579C228.028 342.521 227.654 343.423 226.988 344.089C226.323 344.754 225.42 345.128 224.479 345.13Z" fill="#D2E4FF" stroke="#001C39" stroke-width="2.05049"/>
<path d="M201.084 345.13H191.544C190.603 345.128 189.701 344.754 189.035 344.088C188.37 343.423 187.995 342.521 187.994 341.58V262.058C187.995 261.117 188.37 260.215 189.035 259.55C189.701 258.884 190.603 258.51 191.544 258.509H201.084C202.025 258.51 202.927 258.884 203.593 259.55C204.258 260.215 204.633 261.118 204.634 262.059V341.579C204.633 342.521 204.258 343.423 203.593 344.089C202.927 344.754 202.025 345.128 201.084 345.13Z" fill="#D2E4FF" stroke="#001C39" stroke-width="2.05049"/>
<path d="M247.706 119.451C247.706 139.865 231.157 156.414 210.743 156.414C190.329 156.414 173.78 139.865 173.78 119.451C173.78 99.0366 190.329 82.4876 210.743 82.4876C231.157 82.4876 247.706 99.0366 247.706 119.451Z" fill="#D2E4FF" stroke="#001C39" stroke-width="2.05049"/>
<path d="M232.209 132.059C234.612 131.515 237.602 130.837 239.584 128.688C240.17 128.027 240.605 127.246 240.857 126.4C241.11 125.553 241.174 124.662 241.046 123.788C240.966 123.165 240.744 122.568 240.395 122.045C240.047 121.522 239.582 121.087 239.038 120.773C237.626 119.99 235.812 120.099 234.019 121.035L233.144 106.23L231.657 106.318L232.686 123.722L233.785 122.928C235.06 122.009 236.92 121.301 238.315 122.076C238.661 122.282 238.954 122.565 239.173 122.903C239.392 123.241 239.529 123.625 239.575 124.025C239.667 124.676 239.618 125.339 239.43 125.97C239.243 126.6 238.922 127.182 238.489 127.677C236.946 129.35 234.583 129.993 231.88 130.606L232.209 132.059Z" fill="#2F2E41"/>
<path d="M248.423 104.505L240.552 106.06L240.84 107.521L248.712 105.966L248.423 104.505Z" fill="#2F2E41"/>
<path d="M223.579 109.413L215.708 110.968L215.997 112.429L223.868 110.875L223.579 109.413Z" fill="#2F2E41"/>
<path d="M220.087 276.666H175.797C174.423 276.665 173.105 276.118 172.133 275.146C171.161 274.175 170.615 272.857 170.613 271.482V205.019C170.625 194.803 174.688 185.008 181.912 177.785C189.136 170.561 198.93 166.497 209.146 166.486C219.65 166.498 229.72 170.676 237.147 178.103C244.575 185.53 248.753 195.601 248.765 206.104V247.99C248.756 255.593 245.732 262.882 240.356 268.258C234.979 273.634 227.69 276.658 220.087 276.666Z" fill="#2F2E41"/>
<path d="M203.621 102.726C204.847 99.0501 209.107 97.6319 212.651 97.5218C217.632 97.367 222.495 99.1359 227.492 98.3453C236.556 96.9111 242.214 88.1755 243.978 79.8128C245.154 74.235 245.05 68.517 244.917 62.8491C244.925 62.6306 244.87 62.4143 244.758 62.2263C244.647 62.0383 244.483 61.8866 244.287 61.7894C244.091 61.6922 243.871 61.6537 243.654 61.6786C243.437 61.7034 243.231 61.7904 243.062 61.9293C239.439 64.4019 236.833 68.1035 235.729 72.349L237.899 72.7979L239.04 62.8983C239.056 62.6531 238.991 62.4094 238.856 62.204C238.721 61.9987 238.523 61.8428 238.292 61.76C234.892 60.5757 232.058 63.2482 230.208 65.7765C229.25 67.0859 228.33 68.5124 226.907 69.3649C225.424 70.1733 223.727 70.5019 222.049 70.3057C218.586 70.0553 215.302 68.7465 211.909 68.0985C208.793 67.5185 205.615 67.3418 202.454 67.5729C196.198 68.012 190.135 69.9249 184.76 73.1554C179.391 76.3905 174.475 81.0141 171.626 86.6591C169.999 89.882 169.115 93.5918 170.009 97.1643C170.367 98.7871 171.1 100.304 172.149 101.592C173.199 102.88 174.536 103.905 176.053 104.584C177.383 105.141 178.106 103.025 176.785 102.472C174.269 101.419 172.671 98.9482 172.113 96.3469C171.474 93.374 172.256 90.298 173.618 87.6354C176.271 82.4502 180.811 78.1383 185.76 75.1543C190.798 72.1193 196.469 70.2891 202.331 69.8063C205.198 69.578 208.083 69.7036 210.92 70.1803C214.102 70.7106 217.146 71.8496 220.335 72.3524C223.836 72.9043 227.468 72.4189 229.973 69.6952C231.815 67.6919 234.092 62.6636 237.559 63.8715L236.811 62.7331L235.67 72.6327C235.527 73.8713 237.52 74.3192 237.84 73.0816C238.836 69.2069 241.221 65.8335 244.543 63.6037L242.688 62.6839C242.908 72.0819 243.105 82.4689 236.841 90.1699C234.154 93.4736 230.372 95.8905 226.074 96.2756C221.233 96.7095 216.479 94.9567 211.631 95.3615C207.439 95.7116 202.929 97.7383 201.51 101.994C201.054 103.36 203.166 104.092 203.621 102.726V102.726Z" fill="#2F2E41"/>
<path d="M222.715 136.124C222.709 136.231 222.701 136.339 222.69 136.446C222.602 137.356 222.334 138.239 221.903 139.045C221.471 139.85 220.884 140.562 220.176 141.139L212.293 147.594C210.865 148.761 209.033 149.313 207.198 149.131C205.363 148.948 203.675 148.045 202.505 146.62L182.714 122.454C181.548 121.026 180.996 119.193 181.179 117.358C181.362 115.524 182.264 113.836 183.689 112.666L191.572 106.211C192.278 105.632 193.092 105.198 193.966 104.934C194.84 104.67 195.758 104.58 196.667 104.671C197.576 104.761 198.458 105.03 199.263 105.462C200.068 105.893 200.78 106.479 201.358 107.186L221.149 131.351C222.251 132.689 222.81 134.393 222.715 136.124Z" fill="#2F2E41"/>
<path d="M197.598 123.987C198.962 123.987 200.067 122.882 200.067 121.518C200.067 120.154 198.962 119.048 197.598 119.048C196.234 119.048 195.128 120.154 195.128 121.518C195.128 122.882 196.234 123.987 197.598 123.987Z" fill="white"/>
<path d="M214.304 125.524L214.438 125.553C215.237 125.722 215.942 126.185 216.417 126.849C216.891 127.512 217.1 128.33 217.002 129.139L214.304 125.524ZM214.304 125.524L205.335 124.429C205.335 124.429 205.335 124.429 205.335 124.429C204.476 124.324 203.611 124.565 202.93 125.098C202.248 125.631 201.807 126.413 201.702 127.272L193.264 196.406L193.264 196.406C193.23 196.682 193.211 196.96 193.207 197.238C193.181 199.209 193.912 201.115 195.249 202.564C196.586 204.013 198.427 204.895 200.395 205.028C202.362 205.16 204.305 204.534 205.825 203.278C207.344 202.021 208.325 200.23 208.564 198.273C208.564 198.273 208.564 198.273 208.564 198.273L217.002 129.141L214.304 125.524Z" fill="#D2E4FF" stroke="#001C39" stroke-width="2.05049"/>
<path d="M505.438 81.6543C522.916 81.6543 537.085 67.4857 537.085 50.0078C537.085 32.5299 522.916 18.3613 505.438 18.3613C487.961 18.3613 473.792 32.5299 473.792 50.0078C473.792 67.4857 487.961 81.6543 505.438 81.6543Z" fill="#E4E4E4"/>
<path d="M509.138 63.2919C507.087 63.235 504.534 63.1638 502.567 61.727C501.981 61.2816 501.5 60.7136 501.157 60.0627C500.814 59.4117 500.617 58.6936 500.581 57.9588C500.546 57.4365 500.631 56.9131 500.831 56.4294C501.032 55.9457 501.341 55.5149 501.735 55.1707C502.321 54.7332 503.008 54.4495 503.732 54.3453C504.455 54.2411 505.194 54.3197 505.879 54.5741L504.205 42.334L505.434 42.1655L507.403 56.5553L506.376 56.0842C505.186 55.5382 503.552 55.2603 502.537 56.1184C502.287 56.3427 502.093 56.6216 501.969 56.9332C501.845 57.2448 501.794 57.5808 501.821 57.9151C501.851 58.4621 501.999 58.9961 502.254 59.481C502.509 59.9658 502.865 60.39 503.299 60.7247C504.829 61.8428 506.864 61.987 509.173 62.0515L509.138 63.2919Z" fill="#001C39"/>
<path d="M498.123 43.3901H491.439V44.6312H498.123V43.3901Z" fill="#001C39"/>
<path d="M519.22 43.3901H512.536V44.6312H519.22V43.3901Z" fill="#001C39"/>
<path d="M505.438 100.015C495.548 100.015 485.879 97.0823 477.656 91.5874C469.432 86.0925 463.022 78.2824 459.237 69.1447C455.452 60.007 454.462 49.9521 456.392 40.2516C458.321 30.5511 463.084 21.6406 470.078 14.6469C477.071 7.65322 485.982 2.89046 495.682 0.960905C505.383 -0.968648 515.438 0.0216648 524.575 3.80662C533.713 7.59157 541.523 14.0012 547.018 22.2249C552.513 30.4486 555.446 40.117 555.446 50.0076C555.431 63.2658 550.157 75.9768 540.782 85.3518C531.407 94.7268 518.696 100 505.438 100.015ZM505.438 1.37009C495.819 1.37009 486.415 4.22263 478.417 9.56698C470.418 14.9113 464.184 22.5075 460.503 31.3948C456.822 40.2822 455.859 50.0616 457.735 59.4963C459.612 68.9311 464.244 77.5974 471.046 84.3995C477.848 91.2016 486.515 95.8339 495.95 97.7105C505.384 99.5872 515.164 98.624 524.051 94.9428C532.938 91.2615 540.534 85.0275 545.879 77.0291C551.223 69.0307 554.076 59.6272 554.076 50.0076C554.061 37.1126 548.932 24.7499 539.814 15.6318C530.696 6.51364 518.333 1.38467 505.438 1.37009Z" fill="#001C39"/>
<path d="M486.058 172.446C486.058 185.951 475.111 196.899 461.606 196.899C448.101 196.899 437.153 185.951 437.153 172.446C437.153 158.941 448.101 147.994 461.606 147.994C475.111 147.994 486.058 158.941 486.058 172.446Z" fill="#E4E4E4" stroke="#001C39" stroke-width="1.53787"/>
<path d="M572.623 172.446C572.623 185.951 561.675 196.899 548.17 196.899C534.665 196.899 523.717 185.951 523.717 172.446C523.717 158.941 534.665 147.994 548.17 147.994C561.675 147.994 572.623 158.941 572.623 172.446Z" fill="#CACACA" stroke="#001C39" stroke-width="1.53787"/>
<path d="M473.857 177.483C473.016 177.517 472.194 177.218 471.572 176.65C470.949 176.082 470.576 175.292 470.533 174.45C470.527 174.387 470.523 174.323 470.52 174.259H452.691C452.688 174.323 452.684 174.387 452.679 174.45C452.657 174.88 452.549 175.301 452.361 175.688C452.173 176.075 451.909 176.42 451.585 176.702C451.261 176.985 450.883 177.199 450.475 177.333C450.066 177.467 449.634 177.516 449.206 177.48C448.76 177.476 448.319 177.385 447.908 177.21C447.498 177.036 447.126 176.782 446.814 176.463C446.502 176.144 446.256 175.767 446.091 175.352C445.925 174.938 445.844 174.495 445.85 174.049V173.917C445.852 172.192 446.538 170.537 447.758 169.317C448.978 168.097 450.632 167.411 452.358 167.409H470.854C472.579 167.411 474.233 168.097 475.453 169.317C476.673 170.537 477.36 172.192 477.361 173.917V174.049C477.368 174.495 477.286 174.938 477.121 175.352C476.955 175.767 476.709 176.144 476.397 176.463C476.086 176.782 475.714 177.036 475.303 177.21C474.893 177.385 474.452 177.476 474.006 177.48C473.957 177.482 473.907 177.483 473.857 177.483Z" fill="white"/>
<path d="M553.967 186.416C553.544 186.416 553.123 186.375 552.708 186.294C551.868 186.133 551.069 185.806 550.356 185.334C549.644 184.862 549.032 184.253 548.556 183.542L538.222 168.202C537.26 166.77 536.905 165.015 537.235 163.322C537.565 161.628 538.553 160.135 539.983 159.169L540.093 159.095C540.46 158.841 540.873 158.661 541.309 158.567C541.744 158.473 542.195 158.466 542.633 158.547C543.072 158.627 543.49 158.794 543.864 159.037C544.238 159.28 544.561 159.594 544.813 159.962C545.081 160.297 545.28 160.683 545.397 161.097C545.514 161.51 545.546 161.943 545.493 162.369C545.44 162.795 545.301 163.207 545.086 163.579C544.871 163.951 544.584 164.276 544.241 164.535C544.191 164.574 544.141 164.613 544.09 164.652L554.051 179.438C554.106 179.405 554.161 179.373 554.216 179.342C554.585 179.122 554.994 178.978 555.42 178.918C555.845 178.858 556.278 178.885 556.693 178.996C557.108 179.106 557.497 179.299 557.836 179.563C558.176 179.826 558.459 180.155 558.669 180.53C558.915 180.902 559.086 181.319 559.17 181.756C559.255 182.194 559.252 182.645 559.162 183.082C559.072 183.518 558.896 183.933 558.645 184.302C558.394 184.67 558.073 184.986 557.699 185.23L557.589 185.304C556.52 186.028 555.258 186.416 553.967 186.416Z" fill="white"/>
<path d="M395.952 346.829H20.244C19.985 346.828 19.7369 346.727 19.5541 346.546C19.3712 346.365 19.2686 346.121 19.2686 345.866C19.2686 345.611 19.3712 345.366 19.5541 345.186C19.7369 345.005 19.985 344.903 20.244 344.902H395.952C396.211 344.903 396.459 345.005 396.642 345.186C396.824 345.366 396.927 345.611 396.927 345.866C396.927 346.121 396.824 346.365 396.642 346.546C396.459 346.727 396.211 346.828 395.952 346.829Z" fill="#001C39"/>
</g>
<defs>
<clipPath id="clip0_512_21314">
<rect width="632" height="346.829" fill="white"/>
</clipPath>
</defs>
</svg>
